<svg width="15" height="11" viewBox="0 0 15 11" fill="none" xmlns="http://www.w3.org/2000/svg">
<path id="Arrow" d="M5.56072 5.85934C4.76773 6.65346 4.00923 7.41421 3.24999 8.17533C2.6001 8.82522 1.95021 9.47411 1.30032 10.122C1.08773 10.3331 0.831269 10.3983 0.542193 10.3132C0.253116 10.2281 0.0810205 10.023 0.0172812 9.73319C-0.0442085 9.45124 0.0633984 9.2199 0.260615 9.02081C1.16196 8.11996 2.06256 7.21886 2.96241 6.31752C3.62955 5.65063 4.29719 4.98412 4.96532 4.31798C5.33164 3.95429 5.75569 3.95241 6.1205 4.31235C6.62742 4.81227 7.13096 5.31593 7.63112 5.82335C7.68774 5.88034 7.72336 5.95795 7.76348 6.01794L11.9763 1.8014C11.9163 1.79765 11.8585 1.79128 11.8004 1.7909C11.313 1.7909 10.8256 1.79578 10.3382 1.7879C10.0161 1.78303 9.77351 1.62668 9.64116 1.33385C9.51481 1.05415 9.5568 0.782697 9.75364 0.544237C9.82425 0.455858 9.91422 0.384878 10.0166 0.336772C10.119 0.288667 10.2311 0.264722 10.3442 0.266784C11.511 0.264159 12.6808 0.26191 13.8491 0.267909C14.2904 0.270158 14.6169 0.605352 14.6184 1.0459C14.6222 2.20821 14.6222 3.37051 14.6184 4.53282C14.6184 4.97449 14.2724 5.32018 13.8532 5.31643C13.434 5.31269 13.1108 4.98274 13.1033 4.53994C13.0962 4.06527 13.1015 3.59022 13.1015 3.11518V2.91834L13.0332 2.8741C12.9908 2.94091 12.9434 3.00445 12.8915 3.06419C11.3997 4.55869 9.90687 6.05206 8.41287 7.54431C8.02406 7.93237 7.60375 7.93312 7.21644 7.54768C6.70778 7.04127 6.19999 6.53323 5.69308 6.02357C5.64958 5.9797 5.61471 5.92571 5.56072 5.85934Z" fill="#008A1E"/>
</svg>
